<?xml version="1.0" encoding="UTF-8" standalone="no"?>
<!-- Generator: Adobe Illustrator 17.0.0, SVG Export Plug-In . SVG Version: 6.00 Build 0)  -->

<svg
   xmlns:dc="http://purl.org/dc/elements/1.1/"
   xmlns:cc="http://creativecommons.org/ns#"
   xmlns:rdf="http://www.w3.org/1999/02/22-rdf-syntax-ns#"
   xmlns:svg="http://www.w3.org/2000/svg"
   xmlns="http://www.w3.org/2000/svg"
   xmlns:xlink="http://www.w3.org/1999/xlink"
   xmlns:sodipodi="http://sodipodi.sourceforge.net/DTD/sodipodi-0.dtd"
   xmlns:inkscape="http://www.inkscape.org/namespaces/inkscape"
   version="1.1"
   id="Слой_1"
   x="0px"
   y="0px"
   width="500"
   height="500"
   viewBox="0 0 500 500"
   enable-background="new 0 0 612 792"
   xml:space="preserve"
   inkscape:version="0.91 r13725"
   sodipodi:docname="home_menu-icon.svg"><metadata
     id="metadata19"><rdf:RDF><cc:Work
         rdf:about=""><dc:format>image/svg+xml</dc:format><dc:type
           rdf:resource="http://purl.org/dc/dcmitype/StillImage" /><dc:title></dc:title></cc:Work></rdf:RDF></metadata><defs
     id="defs17" /><sodipodi:namedview
     pagecolor="#ffffff"
     bordercolor="#666666"
     borderopacity="1"
     objecttolerance="10"
     gridtolerance="10"
     guidetolerance="10"
     inkscape:pageopacity="0"
     inkscape:pageshadow="2"
     inkscape:window-width="1920"
     inkscape:window-height="1058"
     id="namedview15"
     showgrid="false"
     fit-margin-top="0"
     fit-margin-left="0"
     fit-margin-right="0"
     fit-margin-bottom="0"
     inkscape:zoom="0.2979798"
     inkscape:cx="-353.8628"
     inkscape:cy="223.65621"
     inkscape:window-x="-8"
     inkscape:window-y="-8"
     inkscape:window-maximized="1"
     inkscape:current-layer="Слой_1" fill="#757574"/><g
     id="g3"
     transform="matrix(1.2834001,0,0,1.2834001,-142.4576,-259.14179)"><g
       id="g5"><defs
         id="defs7"><rect
           id="SVGID_1_"
           x="111"
           y="223"
           width="389.76001"
           height="348" /></defs><clipPath
         id="SVGID_2_"><use
           xlink:href="#SVGID_1_"
           overflow="visible"
           id="use11"
           style="overflow:visible"
           x="0"
           y="0"
           width="100%"
           height="100%" /></clipPath><path
         clip-path="url(#SVGID_2_)"
         d="m 124.457,429.89 31.734,0 0,126.934 c 0,7.48 6.121,13.602 13.602,13.602 l 92.934,0 c 7.476,0 13.597,-6.122 13.597,-13.602 l 0,-92.934 56.668,0 0,92.934 c 0,7.48 6.117,13.602 13.598,13.602 l 88.402,0 c 7.481,0 13.598,-6.122 13.598,-13.602 l 0,-126.934 38.535,0 c 5.441,0 10.426,-3.398 12.465,-8.386 2.043,-4.985 0.906,-10.879 -2.945,-14.731 L 319.391,227.023 c -5.215,-5.211 -13.825,-5.437 -19.039,-0.222 L 115.164,406.547 c -4.078,3.851 -5.215,9.746 -3.172,14.957 2.039,5.214 7.024,8.386 12.465,8.386 l 0,0 z m 184.961,-174.078 145.066,146.879 -19.492,0 c -7.48,0 -13.601,6.121 -13.601,13.602 l 0,126.933 -61.2,0 0,-92.933 c 0,-7.481 -6.121,-13.602 -13.601,-13.602 l -83.863,0 c -7.481,0 -13.602,6.121 -13.602,13.602 l 0,92.933 -65.734,0 0,-126.933 c 0,-7.481 -6.121,-13.602 -13.598,-13.602 l -11.789,0 151.414,-146.879 z m 0,0"
         id="path13"
         inkscape:connector-curvature="0" fill="#757574" /></g></g></svg>