<?xml version="1.0" encoding="UTF-8" standalone="no"?>
<!-- Generator: Adobe Illustrator 17.0.0, SVG Export Plug-In . SVG Version: 6.00 Build 0)  -->

<svg
   xmlns:dc="http://purl.org/dc/elements/1.1/"
   xmlns:cc="http://creativecommons.org/ns#"
   xmlns:rdf="http://www.w3.org/1999/02/22-rdf-syntax-ns#"
   xmlns:svg="http://www.w3.org/2000/svg"
   xmlns="http://www.w3.org/2000/svg"
   xmlns:sodipodi="http://sodipodi.sourceforge.net/DTD/sodipodi-0.dtd"
   xmlns:inkscape="http://www.inkscape.org/namespaces/inkscape"
   version="1.1"
   id="Слой_1"
   x="0px"
   y="0px"
   width="500"
   height="500"
   viewBox="0 0 500 500"
   xml:space="preserve"
   inkscape:version="0.91 r13725"
   sodipodi:docname="live-icon.svg"><metadata
     id="metadata21"><rdf:RDF><cc:Work
         rdf:about=""><dc:format>image/svg+xml</dc:format><dc:type
           rdf:resource="http://purl.org/dc/dcmitype/StillImage" /><dc:title></dc:title></cc:Work></rdf:RDF></metadata><defs
     id="defs19" /><sodipodi:namedview
     pagecolor="#ffffff"
     bordercolor="#666666"
     borderopacity="1"
     objecttolerance="10"
     gridtolerance="10"
     guidetolerance="10"
     inkscape:pageopacity="0"
     inkscape:pageshadow="2"
     inkscape:window-width="1920"
     inkscape:window-height="1058"
     id="namedview17"
     showgrid="false"
     fit-margin-top="0"
     fit-margin-left="0"
     fit-margin-right="0"
     fit-margin-bottom="0"
     inkscape:zoom="0.2979798"
     inkscape:cx="-371.72101"
     inkscape:cy="77.653486"
     inkscape:window-x="-8"
     inkscape:window-y="-8"
     inkscape:window-maximized="1"
     inkscape:current-layer="Слой_1" /><g
     id="g3"
     transform="matrix(1.4513101,0,0,1.4513101,-219.72087,-271.02033)"><g
       id="g5"><path
         style="fill:white"
         d="m 200.022,397.337 47.188,0 0,16.385 -68.451,0 0,-106.027 21.264,0 0,89.642 z"
         id="path7"
         inkscape:connector-curvature="0" /><path
         style="fill:white"
         d="m 282.017,413.722 -21.264,0 0,-106.027 21.264,0 0,106.027 z"
         id="path9"
         inkscape:connector-curvature="0" /><path
         style="fill:white"
         d="m 339.181,385.54 1.312,5.753 0.436,0 1.24,-5.608 23.084,-77.991 22.429,0 -36.047,106.027 -21.846,0 -35.973,-106.027 22.429,0 22.936,77.846 z"
         id="path11"
         inkscape:connector-curvature="0" /><path
         style="fill:white"
         d="m 463.268,367.117 -43.911,0 0,30.22 51.338,0 0,16.385 -72.601,0 0,-106.027 72.457,0 0,16.385 -51.193,0 0,26.652 43.911,0 0,16.385 z"
         id="path13"
         inkscape:connector-curvature="0" /></g><path
       style="fill:white"
       d="m 495.911,438 -344.516,0 0,-158 344.516,0 0,158 z m -335.267,-9.249 326.019,0 0,-139.502 -326.019,0 0,139.502 z"
       id="path15"
       inkscape:connector-curvature="0" /></g></svg>