<?xml version="1.0" encoding="UTF-8" standalone="no"?>
<!-- Generator: Adobe Illustrator 17.0.0, SVG Export Plug-In . SVG Version: 6.00 Build 0)  -->

<svg
   xmlns:dc="http://purl.org/dc/elements/1.1/"
   xmlns:cc="http://creativecommons.org/ns#"
   xmlns:rdf="http://www.w3.org/1999/02/22-rdf-syntax-ns#"
   xmlns:svg="http://www.w3.org/2000/svg"
   xmlns="http://www.w3.org/2000/svg"
   xmlns:sodipodi="http://sodipodi.sourceforge.net/DTD/sodipodi-0.dtd"
   xmlns:inkscape="http://www.inkscape.org/namespaces/inkscape"
   version="1.1"
   id="Layer_1"
   x="0px"
   y="0px"
   width="500"
   height="500"
   viewBox="-49 141 500 500"
   xml:space="preserve"
   inkscape:version="0.91 r13725"
   sodipodi:docname="main_menu-icon.svg"><metadata
     id="metadata13"><rdf:RDF><cc:Work
         rdf:about=""><dc:format>image/svg+xml</dc:format><dc:type
           rdf:resource="http://purl.org/dc/dcmitype/StillImage" /><dc:title></dc:title></cc:Work></rdf:RDF></metadata><defs
     id="defs11" /><sodipodi:namedview
     pagecolor="#ffffff"
     bordercolor="#666666"
     borderopacity="1"
     objecttolerance="10"
     gridtolerance="10"
     guidetolerance="10"
     inkscape:pageopacity="0"
     inkscape:pageshadow="2"
     inkscape:window-width="1920"
     inkscape:window-height="1058"
     id="namedview9"
     showgrid="false"
     fit-margin-top="0"
     fit-margin-left="0"
     fit-margin-right="0"
     fit-margin-bottom="0"
     inkscape:zoom="0.4609375"
     inkscape:cx="-140.50835"
     inkscape:cy="173.3995"
     inkscape:window-x="-8"
     inkscape:window-y="-8"
     inkscape:window-maximized="1"
     inkscape:current-layer="Layer_1" fill="white"/><g
     id="g4141"
     transform="matrix(0.97656298,0,0,0.97656298,-1.1485369,3.3044969)"><path
       id="path3"
       d="m 442.318,417.682 -470.636,0 C -39.74,417.682 -49,408.423 -49,397 c 0,-11.423 9.26,-20.682 20.682,-20.682 l 470.636,0 c 11.423,0 20.682,9.26 20.682,20.682 0,11.423 -9.259,20.682 -20.682,20.682 z"
       inkscape:connector-curvature="0" fill="#757574"/><path
       id="path5"
       d="m 442.318,260.803 -470.636,0 c -11.422,0 -20.682,-9.26 -20.682,-20.682 0,-11.422 9.26,-20.682 20.682,-20.682 l 470.636,0 c 11.423,0 20.682,9.26 20.682,20.682 0,11.422 -9.259,20.682 -20.682,20.682 z"
       inkscape:connector-curvature="0" fill="#757574"/><path
       id="path7"
       d="m 442.318,574.561 -470.636,0 c -11.422,0 -20.682,-9.259 -20.682,-20.682 0,-11.423 9.26,-20.682 20.682,-20.682 l 470.636,0 c 11.423,0 20.682,9.259 20.682,20.682 0,11.423 -9.259,20.682 -20.682,20.682 z"
       inkscape:connector-curvature="0" fill="#757574"/></g></svg>