<?xml version="1.0" encoding="UTF-8" standalone="no"?>
<!-- Generator: Adobe Illustrator 17.0.0, SVG Export Plug-In . SVG Version: 6.00 Build 0)  -->

<svg
   xmlns:dc="http://purl.org/dc/elements/1.1/"
   xmlns:cc="http://creativecommons.org/ns#"
   xmlns:rdf="http://www.w3.org/1999/02/22-rdf-syntax-ns#"
   xmlns:svg="http://www.w3.org/2000/svg"
   xmlns="http://www.w3.org/2000/svg"
   xmlns:sodipodi="http://sodipodi.sourceforge.net/DTD/sodipodi-0.dtd"
   xmlns:inkscape="http://www.inkscape.org/namespaces/inkscape"
   version="1.1"
   id="Слой_1"
   x="0px"
   y="0px"
   width="500"
   height="500"
   viewBox="0 0 500 500"
   xml:space="preserve"
   inkscape:version="0.91 r13725"
   sodipodi:docname="play-button.svg"><metadata
     id="metadata13"><rdf:RDF><cc:Work
         rdf:about=""><dc:format>image/svg+xml</dc:format><dc:type
           rdf:resource="http://purl.org/dc/dcmitype/StillImage" /><dc:title></dc:title></cc:Work></rdf:RDF></metadata><defs
     id="defs11" /><sodipodi:namedview
     pagecolor="#ffffff"
     bordercolor="#666666"
     borderopacity="1"
     objecttolerance="10"
     gridtolerance="10"
     guidetolerance="10"
     inkscape:pageopacity="0"
     inkscape:pageshadow="2"
     inkscape:window-width="1920"
     inkscape:window-height="1058"
     id="namedview9"
     showgrid="false"
     fit-margin-top="0"
     fit-margin-left="0"
     fit-margin-right="0"
     fit-margin-bottom="0"
     inkscape:zoom="0.84281415"
     inkscape:cx="136.97526"
     inkscape:cy="281.21059"
     inkscape:window-x="-8"
     inkscape:window-y="-8"
     inkscape:window-maximized="1"
     inkscape:current-layer="Слой_1" fill="white" /><g
     id="g3"
     transform="matrix(10.416667,0,0,10.416667,-2937.5001,-3875.0001)"><path
       d="m 318.449,395.34 -17.597,-12 c -0.247,-0.168 -0.563,-0.184 -0.825,-0.047 -0.261,0.137 -0.425,0.41 -0.425,0.707 l 0,24 c 0,0.297 0.164,0.57 0.425,0.707 0.118,0.063 0.246,0.094 0.371,0.094 0.161,0 0.317,-0.047 0.454,-0.141 l 17.597,-12 c 0.219,-0.148 0.352,-0.394 0.352,-0.66 0,-0.266 -0.133,-0.512 -0.352,-0.66 l 0,0 z m -17.25,11.144 0,-20.968 15.379,10.484 -15.379,10.484 z m 0,0"
       id="path5"
       inkscape:connector-curvature="0" fill="white"/><path
       d="m 306,372 c -13.234,0 -24,10.766 -24,24 0,13.234 10.766,24 24,24 13.234,0 24,-10.766 24,-24 0,-13.234 -10.766,-24 -24,-24 l 0,0 z m 0,46.398 c -12.352,0 -22.398,-10.046 -22.398,-22.398 0,-12.352 10.046,-22.398 22.398,-22.398 12.352,0 22.398,10.046 22.398,22.398 0,12.352 -10.046,22.398 -22.398,22.398 l 0,0 z m 0,0"
       id="path7"
       inkscape:connector-curvature="0" fill="white"/></g></svg>