<?xml version="1.0" encoding="UTF-8" standalone="no"?>
<!-- Generator: Adobe Illustrator 17.0.0, SVG Export Plug-In . SVG Version: 6.00 Build 0)  -->

<svg
   xmlns:dc="http://purl.org/dc/elements/1.1/"
   xmlns:cc="http://creativecommons.org/ns#"
   xmlns:rdf="http://www.w3.org/1999/02/22-rdf-syntax-ns#"
   xmlns:svg="http://www.w3.org/2000/svg"
   xmlns="http://www.w3.org/2000/svg"
   xmlns:xlink="http://www.w3.org/1999/xlink"
   xmlns:sodipodi="http://sodipodi.sourceforge.net/DTD/sodipodi-0.dtd"
   xmlns:inkscape="http://www.inkscape.org/namespaces/inkscape"
   version="1.1"
   id="Слой_1"
   x="0px"
   y="0px"
   width="500"
   height="500"
   viewBox="0 0 500 500"
   xml:space="preserve"
   inkscape:version="0.91 r13725"
   sodipodi:docname="user.svg"><metadata
     id="metadata19"><rdf:RDF><cc:Work
         rdf:about=""><dc:format>image/svg+xml</dc:format><dc:type
           rdf:resource="http://purl.org/dc/dcmitype/StillImage" /><dc:title></dc:title></cc:Work></rdf:RDF></metadata><defs
     id="defs17" /><sodipodi:namedview
     pagecolor="#ffffff"
     bordercolor="#666666"
     borderopacity="1"
     objecttolerance="10"
     gridtolerance="10"
     guidetolerance="10"
     inkscape:pageopacity="0"
     inkscape:pageshadow="2"
     inkscape:window-width="1920"
     inkscape:window-height="1058"
     id="namedview15"
     showgrid="false"
     fit-margin-top="0"
     fit-margin-left="0"
     fit-margin-right="0"
     fit-margin-bottom="0"
     inkscape:zoom="0.2979798"
     inkscape:cx="-353.26737"
     inkscape:cy="250.19903"
     inkscape:window-x="-8"
     inkscape:window-y="-8"
     inkscape:window-maximized="1"
     inkscape:current-layer="Слой_1" /><g
     id="g3"
     transform="matrix(4.8828574,0,0,4.8829079,-1240.2458,-1684.6032)"><g
       id="g5"><defs
         id="defs7"><rect
           id="SVGID_1_"
           x="254"
           y="345"
           width="102.96"
           height="103" /></defs><clipPath
         id="SVGID_2_"><use
           xlink:href="#SVGID_1_"
           style="overflow:visible"
           id="use11"
           x="0"
           y="0"
           width="100%"
           height="100%" /></clipPath><path
         d="m 349.16,418.609 c -3.023,-3.019 -8.078,-5.66 -16.055,-9.648 -4.015,-2.008 -10.707,-5.352 -12.328,-6.883 6.789,-8.348 10.735,-17.774 10.735,-26.027 0,-5.602 0,-12.571 -3.137,-18.786 C 325.551,351.668 319.234,345 305.203,345 c -14.039,0 -20.351,6.668 -23.176,12.265 -3.136,6.215 -3.136,13.184 -3.136,18.786 0,8.253 3.937,17.679 10.734,26.027 -1.629,1.535 -8.316,4.879 -12.336,6.883 -7.969,3.988 -13.027,6.625 -16.051,9.648 -6.695,6.699 -7.203,17.942 -7.238,20.129 -0.035,2.281 0.848,4.484 2.453,6.117 1.602,1.625 3.797,2.543 6.078,2.543 l 85.336,0 c 2.285,0 4.477,-0.918 6.078,-2.543 1.606,-1.633 2.489,-3.836 2.453,-6.121 -0.035,-2.183 -0.543,-13.426 -7.238,-20.125 l 0,0 z m 0.227,21.754 c -0.407,0.41 -0.946,0.637 -1.52,0.637 l -85.336,0 c -0.566,0 -1.117,-0.231 -1.515,-0.637 -0.399,-0.402 -0.621,-0.961 -0.618,-1.527 0.02,-1.074 0.313,-10.645 5.364,-15.699 2.332,-2.333 7.215,-4.86 14.39,-8.45 7.66,-3.828 11.91,-6.109 13.868,-7.961 l 4.316,-4.082 -3.75,-4.605 c -5.906,-7.258 -9.297,-15.274 -9.297,-21.988 0,-5.18 0,-11.043 2.449,-15.899 2.934,-5.808 8.805,-8.754 17.465,-8.754 8.649,0 14.527,2.946 17.457,8.75 2.453,4.86 2.453,10.723 2.453,15.903 0,6.711 -3.39,14.726 -9.304,21.988 l -3.75,4.609 4.32,4.082 c 1.957,1.844 6.199,4.125 13.863,7.957 7.18,3.586 12.059,6.117 14.391,8.45 4.113,4.109 5.308,11.8 5.363,15.699 0.012,0.566 -0.211,1.125 -0.609,1.527 l 0,0 z m 0,0"
         id="path13"
         clip-path="url(#SVGID_2_)"
         inkscape:connector-curvature="0" fill="#9a9a9a"/></g></g></svg>