<?xml version="1.0" encoding="UTF-8" standalone="no"?>
<!-- Generator: Adobe Illustrator 17.0.0, SVG Export Plug-In . SVG Version: 6.00 Build 0)  -->

<svg
   xmlns:dc="http://purl.org/dc/elements/1.1/"
   xmlns:cc="http://creativecommons.org/ns#"
   xmlns:rdf="http://www.w3.org/1999/02/22-rdf-syntax-ns#"
   xmlns:svg="http://www.w3.org/2000/svg"
   xmlns="http://www.w3.org/2000/svg"
   xmlns:sodipodi="http://sodipodi.sourceforge.net/DTD/sodipodi-0.dtd"
   xmlns:inkscape="http://www.inkscape.org/namespaces/inkscape"
   version="1.1"
   id="Слой_1"
   x="0px"
   y="0px"
   width="500"
   height="500"
   viewBox="0 0 500 499.99999"
   xml:space="preserve"
   inkscape:version="0.91 r13725"
   sodipodi:docname="address search.svg"><metadata
     id="metadata15"><rdf:RDF><cc:Work
         rdf:about=""><dc:format>image/svg+xml</dc:format><dc:type
           rdf:resource="http://purl.org/dc/dcmitype/StillImage" /><dc:title></dc:title></cc:Work></rdf:RDF></metadata><defs
     id="defs13" /><sodipodi:namedview
     pagecolor="#ffffff"
     bordercolor="#666666"
     borderopacity="1"
     objecttolerance="10"
     gridtolerance="10"
     guidetolerance="10"
     inkscape:pageopacity="0"
     inkscape:pageshadow="2"
     inkscape:window-width="1920"
     inkscape:window-height="1058"
     id="namedview11"
     showgrid="false"
     fit-margin-top="0"
     fit-margin-left="0"
     fit-margin-right="0"
     fit-margin-bottom="0"
     inkscape:zoom="0.64"
     inkscape:cx="-6.3432438"
     inkscape:cy="37.320926"
     inkscape:window-x="-8"
     inkscape:window-y="-8"
     inkscape:window-maximized="1"
     inkscape:current-layer="Слой_1"
     inkscape:snap-page="true"
     inkscape:snap-smooth-nodes="true"
     inkscape:snap-object-midpoints="true"
     inkscape:snap-center="true"
     inkscape:snap-text-baseline="true"
     inkscape:snap-bbox="true"
     inkscape:bbox-paths="true"
     inkscape:bbox-nodes="true"
     inkscape:snap-bbox-edge-midpoints="true"
     inkscape:snap-bbox-midpoints="true"
     inkscape:object-paths="true"
     inkscape:snap-intersection-paths="true"
     inkscape:object-nodes="true"
     inkscape:snap-midpoints="true" /><g
     id="g3"
     transform="matrix(2.1430347,0,0,2.1430347,-787.03806,-739.8613)"><path
       d="m 375.044,480.517 c -5.195,-5.189 -7.79,-11.335 -7.79,-18.43 0,-7.345 2.595,-13.615 7.79,-18.81 5.189,-5.189 11.334,-7.79 18.43,-7.79 7.089,0 13.234,2.601 18.43,7.79 5.189,5.195 7.79,11.465 7.79,18.81 0,7.095 -2.535,13.241 -7.6,18.43 -5.07,5.189 -11.275,7.79 -18.62,7.79 -7.096,0 -13.241,-2.6 -18.43,-7.79 z"
       id="path5"
       inkscape:connector-curvature="0" /><path
       d="m 465.48,480.517 c -5.195,-5.189 -7.79,-11.335 -7.79,-18.43 0,-7.345 2.595,-13.615 7.79,-18.81 5.189,-5.189 11.334,-7.79 18.43,-7.79 7.089,0 13.234,2.601 18.43,7.79 5.189,5.195 7.79,11.465 7.79,18.81 0,7.095 -2.535,13.241 -7.6,18.43 -5.07,5.189 -11.275,7.79 -18.62,7.79 -7.095,0 -13.24,-2.6 -18.43,-7.79 z"
       id="path7"
       inkscape:connector-curvature="0" /><path
       d="m 555.917,480.517 c -5.195,-5.189 -7.79,-11.335 -7.79,-18.43 0,-7.345 2.595,-13.615 7.79,-18.81 5.189,-5.189 11.335,-7.79 18.431,-7.79 7.089,0 13.234,2.601 18.43,7.79 5.189,5.195 7.79,11.465 7.79,18.81 0,7.095 -2.535,13.241 -7.601,18.43 -5.07,5.189 -11.275,7.79 -18.619,7.79 -7.096,0 -13.242,-2.6 -18.431,-7.79 z"
       id="path9"
       inkscape:connector-curvature="0" /></g></svg>