<?xml version="1.0" encoding="UTF-8" standalone="no"?>
<!-- Generator: Adobe Illustrator 16.0.0, SVG Export Plug-In . SVG Version: 6.00 Build 0)  -->

<svg
   xmlns:dc="http://purl.org/dc/elements/1.1/"
   xmlns:cc="http://creativecommons.org/ns#"
   xmlns:rdf="http://www.w3.org/1999/02/22-rdf-syntax-ns#"
   xmlns:svg="http://www.w3.org/2000/svg"
   xmlns="http://www.w3.org/2000/svg"
   xmlns:sodipodi="http://sodipodi.sourceforge.net/DTD/sodipodi-0.dtd"
   xmlns:inkscape="http://www.inkscape.org/namespaces/inkscape"
   version="1.1"
   id="Capa_1"
   x="0px"
   y="0px"
   width="500"
   height="500"
   viewBox="0 0 500.00002 500.00002"
   xml:space="preserve"
   inkscape:version="0.91 r13725"
   sodipodi:docname="bookmark-white.svg"><metadata
     id="metadata41"><rdf:RDF><cc:Work
         rdf:about=""><dc:format>image/svg+xml</dc:format><dc:type
           rdf:resource="http://purl.org/dc/dcmitype/StillImage" /><dc:title></dc:title></cc:Work></rdf:RDF></metadata><defs
     id="defs39" /><sodipodi:namedview
     pagecolor="#ffffff"
     bordercolor="#666666"
     borderopacity="1"
     objecttolerance="10"
     gridtolerance="10"
     guidetolerance="10"
     inkscape:pageopacity="0"
     inkscape:pageshadow="2"
     inkscape:window-width="1920"
     inkscape:window-height="1058"
     id="namedview37"
     showgrid="false"
     fit-margin-top="0"
     fit-margin-left="0"
     fit-margin-right="0"
     fit-margin-bottom="0"
     inkscape:zoom="0.38631487"
     inkscape:cx="-324.19171"
     inkscape:cy="235.5942"
     inkscape:window-x="-8"
     inkscape:window-y="-8"
     inkscape:window-maximized="1"
     inkscape:current-layer="Capa_1" /><g
     id="g3"
     transform="matrix(1.1574851,0,0,1.1574851,5.9534417e-4,1.6835112e-5)"><path
       d="M 393.146,14.279 C 389.433,8.946 384.433,5.046 378.157,2.572 374.16,0.861 369.971,0.004 365.592,0.004 L 365.592,0 66.378,0 C 62.001,0 57.816,0.857 53.818,2.568 47.538,5.04 42.54,8.945 38.829,14.275 c -3.71,5.33 -5.568,11.228 -5.568,17.701 l 0,368.019 c 0,6.475 1.858,12.371 5.568,17.706 3.711,5.329 8.709,9.233 14.989,11.704 3.994,1.711 8.183,2.566 12.56,2.566 8.949,0 16.844,-3.142 23.698,-9.418 l 125.91,-121.062 125.91,121.065 c 6.663,6.081 14.562,9.127 23.695,9.127 4.76,0 8.948,-0.756 12.565,-2.279 6.276,-2.471 11.276,-6.375 14.989,-11.711 3.71,-5.328 5.564,-11.225 5.564,-17.699 l 0,-368.014 c 10e-4,-6.473 -1.857,-12.371 -5.563,-17.701 z m -30.98,376.86 -120.769,-115.915 -25.411,-24.264 -25.409,24.264 -120.768,115.915 0,-354.59 292.357,0 0,354.59 0,0 z"
       id="path5"
       inkscape:connector-curvature="0" fill="white" /></g><g
     id="g7"
     transform="translate(-4.4846909,34.014531)" /><g
     id="g9"
     transform="translate(-4.4846909,34.014531)" /><g
     id="g11"
     transform="translate(-4.4846909,34.014531)" /><g
     id="g13"
     transform="translate(-4.4846909,34.014531)" /><g
     id="g15"
     transform="translate(-4.4846909,34.014531)" /><g
     id="g17"
     transform="translate(-4.4846909,34.014531)" /><g
     id="g19"
     transform="translate(-4.4846909,34.014531)" /><g
     id="g21"
     transform="translate(-4.4846909,34.014531)" /><g
     id="g23"
     transform="translate(-4.4846909,34.014531)" /><g
     id="g25"
     transform="translate(-4.4846909,34.014531)" /><g
     id="g27"
     transform="translate(-4.4846909,34.014531)" /><g
     id="g29"
     transform="translate(-4.4846909,34.014531)" /><g
     id="g31"
     transform="translate(-4.4846909,34.014531)" /><g
     id="g33"
     transform="translate(-4.4846909,34.014531)" /><g
     id="g35"
     transform="translate(-4.4846909,34.014531)" /></svg>