<?xml version="1.0" encoding="UTF-8" standalone="no"?>
<!-- Generator: Adobe Illustrator 17.0.0, SVG Export Plug-In . SVG Version: 6.00 Build 0)  -->

<svg
   xmlns:dc="http://purl.org/dc/elements/1.1/"
   xmlns:cc="http://creativecommons.org/ns#"
   xmlns:rdf="http://www.w3.org/1999/02/22-rdf-syntax-ns#"
   xmlns:svg="http://www.w3.org/2000/svg"
   xmlns="http://www.w3.org/2000/svg"
   xmlns:xlink="http://www.w3.org/1999/xlink"
   xmlns:sodipodi="http://sodipodi.sourceforge.net/DTD/sodipodi-0.dtd"
   xmlns:inkscape="http://www.inkscape.org/namespaces/inkscape"
   version="1.1"
   id="Слой_1"
   x="0px"
   y="0px"
   width="500"
   height="500"
   viewBox="0 0 500 500"
   xml:space="preserve"
   inkscape:version="0.91 r13725"
   sodipodi:docname="eye-close-up.svg"><metadata
     id="metadata27"><rdf:RDF><cc:Work
         rdf:about=""><dc:format>image/svg+xml</dc:format><dc:type
           rdf:resource="http://purl.org/dc/dcmitype/StillImage" /><dc:title></dc:title></cc:Work></rdf:RDF></metadata><defs
     id="defs25" /><sodipodi:namedview
     pagecolor="#ffffff"
     bordercolor="#666666"
     borderopacity="1"
     objecttolerance="10"
     gridtolerance="10"
     guidetolerance="10"
     inkscape:pageopacity="0"
     inkscape:pageshadow="2"
     inkscape:window-width="1920"
     inkscape:window-height="1058"
     id="namedview23"
     showgrid="false"
     fit-margin-top="0"
     fit-margin-left="0"
     fit-margin-right="0"
     fit-margin-bottom="0"
     inkscape:zoom="0.23046875"
     inkscape:cx="-530.83749"
     inkscape:cy="195.73951"
     inkscape:window-x="-8"
     inkscape:window-y="-8"
     inkscape:window-maximized="1"
     inkscape:current-layer="Слой_1" fill="white"/><g
     id="g3"
     transform="matrix(0.67056388,0,0,0.67056388,-93.20834,-93.302555)"><g
       id="g5"><defs
         id="defs7"><rect
           id="SVGID_1_"
           x="139"
           y="220"
           width="745.91998"
           height="584" /></defs><clipPath
         id="SVGID_2_"><use
           xlink:href="#SVGID_1_"
           style="overflow:visible"
           id="use11"
           x="0"
           y="0"
           width="100%"
           height="100%" /></clipPath><path
         d="m 256.102,665.922 97.359,-97.363 c -6.32,-17.68 -9.762,-36.719 -9.762,-56.559 0,-92.879 75.281,-168.078 168.082,-168.078 19.84,0 38.879,3.437 56.559,9.758 l 66.48,-66.481 c -38.8,-12.238 -80.16,-18.801 -122.961,-18.801 -164.48,0 -306.238,96.961 -371.359,236.883 -2,4.239 -2,9.199 0,13.52 26.801,57.519 66.559,107.84 115.602,147.121 l 0,0 z m 0,0"
         id="path13"
         clip-path="url(#SVGID_2_)"
         inkscape:connector-curvature="0" fill="white"/><path
         d="m 767.539,358.078 -97.359,97.363 c 6.32,17.68 9.761,36.719 9.761,56.559 0,92.879 -75.281,168.078 -168.082,168.078 -19.839,0 -38.879,-3.437 -56.558,-9.758 l -66.481,66.481 c 38.801,12.238 80.16,18.801 122.961,18.801 164.481,0 306.239,-96.961 371.36,-236.883 2,-4.239 2,-9.199 0,-13.52 C 856.34,447.68 816.578,397.359 767.539,358.078 l 0,0 z m 0,0"
         id="path15"
         clip-path="url(#SVGID_2_)"
         inkscape:connector-curvature="0" fill="white"/></g><path
       d="m 511.859,619.602 c 59.442,0 107.602,-48.161 107.602,-107.602 0,-1.84 -0.082,-3.762 -0.16,-5.602 L 506.262,619.441 c 1.84,0.079 3.679,0.161 5.597,0.161 l 0,0 z m 0,0"
       id="path17"
       inkscape:connector-curvature="0" fill="white"/><path
       d="m 511.859,404.48 c -59.437,0 -107.597,48.161 -107.597,107.598 0,1.844 0.078,3.762 0.16,5.602 L 517.461,404.641 c -1.922,-0.161 -3.762,-0.161 -5.602,-0.161 l 0,0 z m 0,0"
       id="path19"
       inkscape:connector-curvature="0" fill="white"/><path
       d="m 282.102,685.121 -50.563,50.559 c -15.598,15.601 -15.598,40.961 0,56.558 7.84,7.84 18.082,11.684 28.32,11.684 10.243,0 20.481,-3.922 28.321,-11.684 l 67.519,-67.519 68.961,-68.957 44.879,-44.883 141.281,-141.277 44.879,-44.883 85.922,-85.918 50.559,-50.563 c 15.601,-15.597 15.601,-40.957 0,-56.558 -7.84,-7.84 -18.078,-11.68 -28.321,-11.68 -10.238,0 -20.48,3.922 -28.32,11.68 L 368.02,599.199 282.102,685.121 Z m 0,0"
       id="path21"
       inkscape:connector-curvature="0" fill="white"/></g></svg>