<?xml version="1.0" encoding="UTF-8" standalone="no"?>
<!-- Generator: Adobe Illustrator 16.0.0, SVG Export Plug-In . SVG Version: 6.00 Build 0)  -->

<svg
   xmlns:dc="http://purl.org/dc/elements/1.1/"
   xmlns:cc="http://creativecommons.org/ns#"
   xmlns:rdf="http://www.w3.org/1999/02/22-rdf-syntax-ns#"
   xmlns:svg="http://www.w3.org/2000/svg"
   xmlns="http://www.w3.org/2000/svg"
   xmlns:sodipodi="http://sodipodi.sourceforge.net/DTD/sodipodi-0.dtd"
   xmlns:inkscape="http://www.inkscape.org/namespaces/inkscape"
   version="1.1"
   id="Capa_1"
   x="0px"
   y="0px"
   width="500"
   height="500"
   viewBox="0 0 499.99999 499.99998"
   xml:space="preserve"
   inkscape:version="0.91 r13725"
   sodipodi:docname="left-arrow.svg"><metadata
     id="metadata41"><rdf:RDF><cc:Work
         rdf:about=""><dc:format>image/svg+xml</dc:format><dc:type
           rdf:resource="http://purl.org/dc/dcmitype/StillImage" /><dc:title></dc:title></cc:Work></rdf:RDF></metadata><defs
     id="defs39" /><sodipodi:namedview
     pagecolor="#ffffff"
     bordercolor="#666666"
     borderopacity="1"
     objecttolerance="10"
     gridtolerance="10"
     guidetolerance="10"
     inkscape:pageopacity="0"
     inkscape:pageshadow="2"
     inkscape:window-width="1920"
     inkscape:window-height="1058"
     id="namedview37"
     showgrid="false"
     fit-margin-top="0"
     fit-margin-left="0"
     fit-margin-right="0"
     fit-margin-bottom="0"
     inkscape:zoom="0.80722671"
     inkscape:cx="-82.361604"
     inkscape:cy="250.00052"
     inkscape:window-x="-8"
     inkscape:window-y="-8"
     inkscape:window-maximized="1"
     inkscape:current-layer="Capa_1" /><g
     id="g3"
     transform="matrix(1.7102203,0,0,1.7102203,-3.454e-6,-1.8712789e-5)"><path
       d="M 222.979,5.424 C 219.364,1.807 215.08,0 210.132,0 205.183,0 200.899,1.807 197.284,5.424 L 69.378,133.331 c -3.615,3.617 -5.424,7.898 -5.424,12.847 0,4.949 1.809,9.233 5.424,12.847 l 127.906,127.907 c 3.614,3.617 7.898,5.428 12.848,5.428 4.948,0 9.232,-1.811 12.847,-5.428 3.617,-3.614 5.427,-7.898 5.427,-12.847 l 0,-255.814 c -0.001,-4.949 -1.81,-9.229 -5.427,-12.847 z"
       id="path5"
       inkscape:connector-curvature="0" /></g><g
     id="g7"
     transform="translate(-5.5554291,103.81998)" /><g
     id="g9"
     transform="translate(-5.5554291,103.81998)" /><g
     id="g11"
     transform="translate(-5.5554291,103.81998)" /><g
     id="g13"
     transform="translate(-5.5554291,103.81998)" /><g
     id="g15"
     transform="translate(-5.5554291,103.81998)" /><g
     id="g17"
     transform="translate(-5.5554291,103.81998)" /><g
     id="g19"
     transform="translate(-5.5554291,103.81998)" /><g
     id="g21"
     transform="translate(-5.5554291,103.81998)" /><g
     id="g23"
     transform="translate(-5.5554291,103.81998)" /><g
     id="g25"
     transform="translate(-5.5554291,103.81998)" /><g
     id="g27"
     transform="translate(-5.5554291,103.81998)" /><g
     id="g29"
     transform="translate(-5.5554291,103.81998)" /><g
     id="g31"
     transform="translate(-5.5554291,103.81998)" /><g
     id="g33"
     transform="translate(-5.5554291,103.81998)" /><g
     id="g35"
     transform="translate(-5.5554291,103.81998)" /></svg>