<?xml version="1.0" encoding="UTF-8" standalone="no"?>
<!-- Generator: Adobe Illustrator 16.0.0, SVG Export Plug-In . SVG Version: 6.00 Build 0)  -->

<svg
   xmlns:dc="http://purl.org/dc/elements/1.1/"
   xmlns:cc="http://creativecommons.org/ns#"
   xmlns:rdf="http://www.w3.org/1999/02/22-rdf-syntax-ns#"
   xmlns:svg="http://www.w3.org/2000/svg"
   xmlns="http://www.w3.org/2000/svg"
   xmlns:sodipodi="http://sodipodi.sourceforge.net/DTD/sodipodi-0.dtd"
   xmlns:inkscape="http://www.inkscape.org/namespaces/inkscape"
   version="1.1"
   id="Capa_1"
   x="0px"
   y="0px"
   width="500"
   height="500"
   viewBox="0 0 500.00001 500.00001"
   xml:space="preserve"
   inkscape:version="0.91 r13725"
   sodipodi:docname="Play-main.svg"><metadata
     id="metadata41"><rdf:RDF><cc:Work
         rdf:about=""><dc:format>image/svg+xml</dc:format><dc:type
           rdf:resource="http://purl.org/dc/dcmitype/StillImage" /><dc:title></dc:title></cc:Work></rdf:RDF></metadata><defs
     id="defs39" /><sodipodi:namedview
     pagecolor="#ffffff"
     bordercolor="#666666"
     borderopacity="1"
     objecttolerance="10"
     gridtolerance="10"
     guidetolerance="10"
     inkscape:pageopacity="0"
     inkscape:pageshadow="2"
     inkscape:window-width="1920"
     inkscape:window-height="1058"
     id="namedview37"
     showgrid="false"
     inkscape:zoom="0.53815792"
     inkscape:cx="219.26649"
     inkscape:cy="219.26649"
     inkscape:window-x="-8"
     inkscape:window-y="-8"
     inkscape:window-maximized="1"
     inkscape:current-layer="Capa_1" /><g
     id="g3"
     transform="matrix(1.140167,0,0,1.1401625,1.4253438e-4,-1.08875e-5)"><path
       d="M 409.133,109.203 C 389.525,75.611 362.928,49.014 329.335,29.407 295.736,9.801 259.058,0 219.273,0 179.492,0 142.807,9.801 109.21,29.407 75.615,49.011 49.018,75.608 29.41,109.203 9.801,142.8 0,179.489 0,219.267 c 0,39.778 9.804,76.463 29.407,110.062 19.607,33.585 46.204,60.189 79.799,79.798 33.597,19.605 70.283,29.407 110.063,29.407 39.78,0 76.47,-9.802 110.065,-29.407 33.593,-19.602 60.189,-46.206 79.795,-79.798 19.603,-33.599 29.403,-70.287 29.403,-110.062 0.001,-39.778 -9.8,-76.472 -29.399,-110.064 z M 328.904,234.966 173.588,326.33 c -2.856,1.711 -5.902,2.567 -9.136,2.567 -3.045,0 -6.09,-0.764 -9.135,-2.286 -6.09,-3.614 -9.136,-8.939 -9.136,-15.985 l 0,-182.719 c 0,-7.041 3.046,-12.371 9.136,-15.987 6.28,-3.427 12.369,-3.333 18.271,0.284 l 155.316,91.36 c 6.088,3.424 9.134,8.663 9.134,15.703 0,7.041 -3.046,12.27 -9.134,15.699 z"
       id="path5"
       inkscape:connector-curvature="0" /></g><g
     id="g7"
     transform="translate(0,61.46701)" /><g
     id="g9"
     transform="translate(0,61.46701)" /><g
     id="g11"
     transform="translate(0,61.46701)" /><g
     id="g13"
     transform="translate(0,61.46701)" /><g
     id="g15"
     transform="translate(0,61.46701)" /><g
     id="g17"
     transform="translate(0,61.46701)" /><g
     id="g19"
     transform="translate(0,61.46701)" /><g
     id="g21"
     transform="translate(0,61.46701)" /><g
     id="g23"
     transform="translate(0,61.46701)" /><g
     id="g25"
     transform="translate(0,61.46701)" /><g
     id="g27"
     transform="translate(0,61.46701)" /><g
     id="g29"
     transform="translate(0,61.46701)" /><g
     id="g31"
     transform="translate(0,61.46701)" /><g
     id="g33"
     transform="translate(0,61.46701)" /><g
     id="g35"
     transform="translate(0,61.46701)" /></svg>