<?xml version="1.0" encoding="UTF-8" standalone="no"?>
<!-- Generator: Adobe Illustrator 17.0.0, SVG Export Plug-In . SVG Version: 6.00 Build 0)  -->

<svg
   xmlns:dc="http://purl.org/dc/elements/1.1/"
   xmlns:cc="http://creativecommons.org/ns#"
   xmlns:rdf="http://www.w3.org/1999/02/22-rdf-syntax-ns#"
   xmlns:svg="http://www.w3.org/2000/svg"
   xmlns="http://www.w3.org/2000/svg"
   xmlns:sodipodi="http://sodipodi.sourceforge.net/DTD/sodipodi-0.dtd"
   xmlns:inkscape="http://www.inkscape.org/namespaces/inkscape"
   version="1.1"
   id="Слой_1"
   x="0px"
   y="0px"
   width="500"
   height="500"
   viewBox="0 0 500 500"
   xml:space="preserve"
   inkscape:version="0.91 r13725"
   sodipodi:docname="settings.svg"><metadata
     id="metadata13"><rdf:RDF><cc:Work
         rdf:about=""><dc:format>image/svg+xml</dc:format><dc:type
           rdf:resource="http://purl.org/dc/dcmitype/StillImage" /><dc:title></dc:title></cc:Work></rdf:RDF></metadata><defs
     id="defs11" /><sodipodi:namedview
     pagecolor="#ffffff"
     bordercolor="#666666"
     borderopacity="1"
     objecttolerance="10"
     gridtolerance="10"
     guidetolerance="10"
     inkscape:pageopacity="0"
     inkscape:pageshadow="2"
     inkscape:window-width="1920"
     inkscape:window-height="1058"
     id="namedview9"
     showgrid="false"
     fit-margin-top="0"
     fit-margin-left="0"
     fit-margin-right="0"
     fit-margin-bottom="0"
     inkscape:zoom="0.1489899"
     inkscape:cx="-1249.9119"
     inkscape:cy="282.98869"
     inkscape:window-x="-8"
     inkscape:window-y="-8"
     inkscape:window-maximized="1"
     inkscape:current-layer="Слой_1" fill="white" /><g
     id="g3"
     transform="matrix(11.574342,0,0,11.574342,-3287.1131,-4340.3782)"><path
       d="m 324.977,391.801 -4.043,0 c -0.649,0 -1.184,-0.36 -1.434,-0.957 -0.246,-0.602 -0.121,-1.235 0.336,-1.692 l 2.859,-2.859 c 0.418,-0.418 0.649,-0.977 0.649,-1.57 0,-0.594 -0.231,-1.153 -0.649,-1.575 l -3.644,-3.644 c -0.84,-0.84 -2.305,-0.84 -3.145,0 l -2.859,2.859 c -0.457,0.457 -1.09,0.586 -1.688,0.336 -0.601,-0.25 -0.961,-0.785 -0.961,-1.433 l 0,-4.043 c 0,-1.227 -0.996,-2.223 -2.222,-2.223 l -5.153,0 c -1.226,0 -2.222,0.996 -2.222,2.223 l 0,4.043 c 0,0.648 -0.36,1.183 -0.957,1.433 -0.602,0.25 -1.235,0.121 -1.692,-0.336 l -2.859,-2.859 c -0.84,-0.84 -2.305,-0.84 -3.145,0 l -3.644,3.644 c -0.418,0.418 -0.649,0.981 -0.649,1.575 0,0.593 0.231,1.152 0.649,1.57 l 2.859,2.859 c 0.457,0.457 0.582,1.09 0.336,1.692 -0.246,0.597 -0.785,0.957 -1.433,0.957 l -4.043,0 c -1.227,0 -2.223,0.996 -2.223,2.222 l 0,5.153 c 0,1.226 0.996,2.222 2.223,2.222 l 4.043,0 c 0.648,0 1.183,0.36 1.433,0.961 0.25,0.598 0.121,1.231 -0.336,1.688 l -2.859,2.859 c -0.418,0.418 -0.649,0.981 -0.649,1.571 0,0.597 0.231,1.156 0.649,1.574 l 3.644,3.644 c 0.84,0.84 2.305,0.84 3.145,0 l 2.859,-2.859 c 0.457,-0.457 1.09,-0.582 1.692,-0.336 0.597,0.25 0.957,0.785 0.957,1.434 l 0,4.043 c 0,1.226 0.996,2.222 2.222,2.222 l 5.153,0 c 1.226,0 2.222,-0.996 2.222,-2.222 l 0,-4.043 c 0,-0.649 0.36,-1.184 0.957,-1.434 0.602,-0.25 1.235,-0.121 1.692,0.336 l 2.859,2.859 c 0.84,0.84 2.305,0.84 3.145,0 l 3.644,-3.644 c 0.418,-0.418 0.649,-0.977 0.649,-1.574 0,-0.59 -0.231,-1.149 -0.649,-1.571 l -2.859,-2.859 c -0.457,-0.457 -0.582,-1.09 -0.336,-1.688 0.246,-0.601 0.785,-0.961 1.434,-0.961 l 4.043,0 c 1.226,0 2.222,-0.996 2.222,-2.222 l 0,-5.153 c 0,-1.226 -0.996,-2.222 -2.222,-2.222 l 0,0 z m 0.625,7.375 c 0,0.344 -0.282,0.625 -0.625,0.625 l -4.043,0 c -1.297,0 -2.414,0.746 -2.911,1.945 -0.5,1.199 -0.238,2.516 0.684,3.434 l 2.855,2.859 c 0.247,0.242 0.247,0.637 0,0.883 l -3.64,3.64 c -0.246,0.243 -0.641,0.247 -0.883,0 l -2.859,-2.855 c -0.918,-0.922 -2.235,-1.18 -3.434,-0.684 -1.199,0.497 -1.945,1.614 -1.945,2.911 l 0,4.043 c 0,0.343 -0.281,0.625 -0.625,0.625 l -5.153,0 c -0.343,0 -0.625,-0.282 -0.625,-0.625 l 0,-4.043 c 0,-1.297 -0.742,-2.414 -1.945,-2.911 -0.402,-0.168 -0.816,-0.25 -1.226,-0.25 -0.809,0 -1.598,0.321 -2.207,0.93 l -2.856,2.859 c -0.246,0.247 -0.641,0.243 -0.887,0 l -3.64,-3.64 c -0.242,-0.246 -0.242,-0.641 0,-0.887 l 2.859,-2.855 c 0.918,-0.918 1.18,-2.235 0.68,-3.434 -0.496,-1.199 -1.61,-1.945 -2.91,-1.945 l -4.043,0 c -0.344,0 -0.621,-0.281 -0.621,-0.625 l 0,-5.153 c 0,-0.343 0.277,-0.625 0.621,-0.625 l 4.043,0 c 1.3,0 2.414,-0.742 2.91,-1.945 0.5,-1.199 0.238,-2.516 -0.68,-3.433 l -2.859,-2.856 c -0.242,-0.246 -0.242,-0.641 0,-0.887 l 3.64,-3.64 c 0.246,-0.242 0.641,-0.242 0.887,0 l 2.856,2.855 c 0.918,0.918 2.234,1.184 3.433,0.684 1.203,-0.496 1.945,-1.61 1.945,-2.91 l 0,-4.043 c 0,-0.344 0.282,-0.621 0.625,-0.621 l 5.153,0 c 0.344,0 0.625,0.277 0.625,0.621 l 0,4.043 c 0,1.3 0.746,2.414 1.945,2.91 1.199,0.5 2.516,0.238 3.434,-0.68 l 2.859,-2.859 c 0.242,-0.242 0.641,-0.242 0.883,0 l 3.64,3.644 c 0.247,0.242 0.247,0.641 0,0.883 l -2.855,2.856 c -0.918,0.917 -1.184,2.234 -0.684,3.437 0.497,1.199 1.614,1.945 2.911,1.945 l 4.043,0 c 0.343,-0.004 0.625,0.278 0.625,0.621 l 0,5.153 z m 0,0"
       id="path5"
       inkscape:connector-curvature="0" fill="white"/><path
       d="m 305.602,389.398 c -3.973,0 -7.204,3.231 -7.204,7.204 0,3.968 3.231,7.199 7.204,7.199 3.968,0 7.199,-3.231 7.199,-7.199 0,-3.973 -3.231,-7.204 -7.199,-7.204 l 0,0 z m 0,12.801 c -3.09,0 -5.602,-2.512 -5.602,-5.597 0,-3.09 2.512,-5.602 5.602,-5.602 3.086,0 5.597,2.512 5.597,5.602 0,3.085 -2.511,5.597 -5.597,5.597 l 0,0 z m 0,0"
       id="path7"
       inkscape:connector-curvature="0" fill="white" /></g></svg>