<?xml version="1.0" encoding="UTF-8" standalone="no"?>
<!-- Generator: Adobe Illustrator 18.0.0, SVG Export Plug-In . SVG Version: 6.00 Build 0)  -->

<svg
   xmlns:dc="http://purl.org/dc/elements/1.1/"
   xmlns:cc="http://creativecommons.org/ns#"
   xmlns:rdf="http://www.w3.org/1999/02/22-rdf-syntax-ns#"
   xmlns:svg="http://www.w3.org/2000/svg"
   xmlns="http://www.w3.org/2000/svg"
   xmlns:sodipodi="http://sodipodi.sourceforge.net/DTD/sodipodi-0.dtd"
   xmlns:inkscape="http://www.inkscape.org/namespaces/inkscape"
   version="1.1"
   id="Capa_1"
   x="0px"
   y="0px"
   viewBox="0 0 500 500"
   xml:space="preserve"
   inkscape:version="0.91 r13725"
   sodipodi:docname="sources.svg"
   width="500"
   height="500"><metadata
     id="metadata55"><rdf:RDF><cc:Work
         rdf:about=""><dc:format>image/svg+xml</dc:format><dc:type
           rdf:resource="http://purl.org/dc/dcmitype/StillImage" /><dc:title></dc:title></cc:Work></rdf:RDF></metadata><defs
     id="defs53" /><sodipodi:namedview
     pagecolor="#ffffff"
     bordercolor="#666666"
     borderopacity="1"
     objecttolerance="10"
     gridtolerance="10"
     guidetolerance="10"
     inkscape:pageopacity="0"
     inkscape:pageshadow="2"
     inkscape:window-width="1920"
     inkscape:window-height="1058"
     id="namedview51"
     showgrid="false"
     inkscape:zoom="1.0350877"
     inkscape:cx="152.4664"
     inkscape:cy="203.30818"
     inkscape:window-x="-8"
     inkscape:window-y="-8"
     inkscape:window-maximized="1"
     inkscape:current-layer="Capa_1" /><g
     id="g3"
     transform="matrix(8.7719298,0,0,8.7719298,-0.00438526,6.9999999e-7)"><path
       d="m 55.688,41.863 -1.444,-0.277 c -0.677,-0.13 -1.21,-0.573 -1.462,-1.216 -0.253,-0.642 -0.163,-1.329 0.245,-1.885 l 0.907,-1.236 c 0.292,-0.398 0.25,-0.95 -0.1,-1.299 l -1.959,-1.958 c -0.339,-0.339 -0.872,-0.389 -1.268,-0.121 l -1.217,0.824 c -0.57,0.388 -1.262,0.451 -1.895,0.175 -0.632,-0.275 -1.055,-0.825 -1.16,-1.508 L 46.102,31.847 C 46.028,31.36 45.608,31 45.115,31 l -2.77,0 c -0.479,0 -0.892,0.341 -0.982,0.812 l -0.358,1.865 c -0.127,0.662 -0.558,1.19 -1.181,1.448 -0.625,0.261 -1.301,0.189 -1.86,-0.189 l -1.572,-1.064 c -0.397,-0.268 -0.929,-0.218 -1.268,0.121 l -1.959,1.958 c -0.35,0.349 -0.392,0.9 -0.1,1.299 l 0.907,1.236 c 0.408,0.556 0.498,1.243 0.245,1.885 -0.252,0.643 -0.785,1.086 -1.462,1.216 l -1.444,0.277 c -0.471,0.091 -0.812,0.503 -0.812,0.982 l 0,2.77 c 0,0.493 0.36,0.913 0.848,0.988 l 1.515,0.233 c 0.683,0.105 1.232,0.528 1.508,1.16 0.276,0.633 0.212,1.323 -0.175,1.895 l -0.824,1.217 c -0.269,0.396 -0.218,0.929 0.121,1.268 l 1.958,1.959 c 0.348,0.349 0.899,0.39 1.299,0.1 l 1.236,-0.907 c 0.555,-0.407 1.244,-0.498 1.885,-0.245 0.643,0.252 1.086,0.785 1.216,1.462 l 0.277,1.444 c 0.091,0.469 0.503,0.81 0.983,0.81 l 2.77,0 c 0.493,0 0.913,-0.36 0.988,-0.848 l 0.164,-1.065 c 0.105,-0.688 0.552,-1.256 1.193,-1.522 0.644,-0.266 1.361,-0.179 1.921,0.232 l 0.869,0.638 c 0.4,0.293 0.951,0.25 1.299,-0.1 l 1.958,-1.959 c 0.339,-0.339 0.39,-0.871 0.121,-1.268 l -0.824,-1.217 c -0.387,-0.571 -0.451,-1.262 -0.175,-1.895 0.275,-0.632 0.825,-1.055 1.508,-1.16 l 1.515,-0.233 c 0.487,-0.075 0.848,-0.495 0.848,-0.988 l 0,-2.77 C 56.5,42.366 56.159,41.954 55.688,41.863 Z m -1.188,2.895 -0.667,0.103 c -1.354,0.208 -2.489,1.082 -3.036,2.337 -0.548,1.256 -0.416,2.682 0.352,3.815 l 0.361,0.533 -0.768,0.768 -0.177,-0.13 c -1.13,-0.827 -2.575,-1.002 -3.869,-0.467 -1.294,0.536 -2.192,1.682 -2.405,3.065 L 44.258,55 43.172,55 43.051,54.367 c -0.259,-1.346 -1.175,-2.447 -2.449,-2.947 -1.275,-0.499 -2.695,-0.314 -3.8,0.494 l -0.544,0.399 -0.768,-0.768 0.361,-0.533 c 0.768,-1.134 0.899,-2.56 0.352,-3.815 -0.547,-1.255 -1.683,-2.129 -3.036,-2.337 l -0.667,-0.102 0,-1.086 0.633,-0.121 c 1.346,-0.259 2.447,-1.175 2.947,-2.449 0.5,-1.275 0.315,-2.695 -0.494,-3.8 l -0.399,-0.544 0.768,-0.768 0.889,0.602 c 1.107,0.752 2.51,0.893 3.747,0.381 1.237,-0.513 2.127,-1.604 2.38,-2.919 L 43.172,33 l 1.086,0 0.103,0.667 c 0.208,1.354 1.082,2.489 2.337,3.036 1.256,0.547 2.682,0.416 3.815,-0.352 l 0.533,-0.361 0.768,0.768 -0.399,0.544 c -0.81,1.104 -0.994,2.524 -0.494,3.8 0.5,1.274 1.602,2.19 2.947,2.449 l 0.633,0.121 0,1.086 z"
       id="path5"
       inkscape:connector-curvature="0" /><path
       d="m 43.5,39 c -2.757,0 -5,2.243 -5,5 0,2.757 2.243,5 5,5 2.757,0 5,-2.243 5,-5 0,-2.757 -2.243,-5 -5,-5 z m 0,8 c -1.654,0 -3,-1.346 -3,-3 0,-1.654 1.346,-3 3,-3 1.654,0 3,1.346 3,3 0,1.654 -1.346,3 -3,3 z"
       id="path7"
       inkscape:connector-curvature="0" /><path
       d="m 27.5,12 c -0.553,0 -1,0.447 -1,1 0,0.553 0.447,1 1,1 l 18,0 c 0.553,0 1,-0.447 1,-1 0,-0.553 -0.447,-1 -1,-1 l -18,0 z"
       id="path9"
       inkscape:connector-curvature="0" /><path
       d="m 46.5,27 c 0,-0.553 -0.447,-1 -1,-1 l -18,0 c -0.553,0 -1,0.447 -1,1 0,0.553 0.447,1 1,1 l 18,0 c 0.553,0 1,-0.447 1,-1 z"
       id="path11"
       inkscape:connector-curvature="0" /><path
       d="M 21.079,7.241 C 20.661,6.882 20.029,6.929 19.67,7.349 L 13.422,14.637 9.6,11.771 c -0.441,-0.33 -1.068,-0.243 -1.399,0.2 -0.332,0.441 -0.242,1.068 0.2,1.399 l 4.571,3.429 c 0.179,0.135 0.39,0.2 0.599,0.2 0.283,0 0.563,-0.119 0.76,-0.35 l 6.857,-8 c 0.36,-0.418 0.311,-1.048 -0.109,-1.408 z"
       id="path13"
       inkscape:connector-curvature="0" /><path
       d="m 21.079,21.241 c -0.418,-0.359 -1.05,-0.312 -1.409,0.108 L 13.422,28.637 9.6,25.771 c -0.441,-0.33 -1.068,-0.243 -1.399,0.2 -0.332,0.441 -0.242,1.068 0.2,1.399 l 4.571,3.429 c 0.179,0.135 0.39,0.2 0.599,0.2 0.283,0 0.563,-0.119 0.76,-0.35 l 6.857,-8 c 0.36,-0.418 0.311,-1.048 -0.109,-1.408 z"
       id="path15"
       inkscape:connector-curvature="0" /><path
       d="M 19.67,36.35 13.422,43.637 9.6,40.771 c -0.441,-0.331 -1.068,-0.243 -1.399,0.2 -0.332,0.441 -0.242,1.068 0.2,1.399 l 4.571,3.429 c 0.179,0.135 0.39,0.2 0.599,0.2 0.283,0 0.563,-0.119 0.76,-0.35 L 21.188,37.65 C 21.548,37.231 21.5,36.6 21.08,36.241 20.661,35.882 20.029,35.93 19.67,36.35 Z"
       id="path17"
       inkscape:connector-curvature="0" /><path
       d="M 23.5,52 12.676,52 C 7.064,52 2.5,47.436 2.5,41.824 l 0,-29.648 C 2.5,6.564 7.064,2 12.676,2 L 42.324,2 C 47.936,2 52.5,6.564 52.5,12.176 L 52.5,33 c 0,0.553 0.447,1 1,1 0.553,0 1,-0.447 1,-1 l 0,-20.824 C 54.5,5.462 49.038,0 42.324,0 L 12.676,0 C 5.962,0 0.5,5.462 0.5,12.176 l 0,29.648 C 0.5,48.538 5.962,54 12.676,54 L 23.5,54 c 0.553,0 1,-0.447 1,-1 0,-0.553 -0.447,-1 -1,-1 z"
       id="path19"
       inkscape:connector-curvature="0" /></g><g
     id="g21"
     transform="translate(0,443)" /><g
     id="g23"
     transform="translate(0,443)" /><g
     id="g25"
     transform="translate(0,443)" /><g
     id="g27"
     transform="translate(0,443)" /><g
     id="g29"
     transform="translate(0,443)" /><g
     id="g31"
     transform="translate(0,443)" /><g
     id="g33"
     transform="translate(0,443)" /><g
     id="g35"
     transform="translate(0,443)" /><g
     id="g37"
     transform="translate(0,443)" /><g
     id="g39"
     transform="translate(0,443)" /><g
     id="g41"
     transform="translate(0,443)" /><g
     id="g43"
     transform="translate(0,443)" /><g
     id="g45"
     transform="translate(0,443)" /><g
     id="g47"
     transform="translate(0,443)" /><g
     id="g49"
     transform="translate(0,443)" /></svg>