<?xml version="1.0" encoding="UTF-8" standalone="no"?>
<!-- Generator: Adobe Illustrator 16.0.0, SVG Export Plug-In . SVG Version: 6.00 Build 0)  -->

<svg
   xmlns:dc="http://purl.org/dc/elements/1.1/"
   xmlns:cc="http://creativecommons.org/ns#"
   xmlns:rdf="http://www.w3.org/1999/02/22-rdf-syntax-ns#"
   xmlns:svg="http://www.w3.org/2000/svg"
   xmlns="http://www.w3.org/2000/svg"
   xmlns:sodipodi="http://sodipodi.sourceforge.net/DTD/sodipodi-0.dtd"
   xmlns:inkscape="http://www.inkscape.org/namespaces/inkscape"
   version="1.1"
   id="Capa_1"
   x="0px"
   y="0px"
   width="500"
   height="500"
   viewBox="0 0 500 500"
   xml:space="preserve"
   inkscape:version="0.91 r13725"
   sodipodi:docname="switch-to-full-screen-button.svg"><metadata
     id="metadata42"><rdf:RDF><cc:Work
         rdf:about=""><dc:format>image/svg+xml</dc:format><dc:type
           rdf:resource="http://purl.org/dc/dcmitype/StillImage" /><dc:title></dc:title></cc:Work></rdf:RDF></metadata><defs
     id="defs40" /><sodipodi:namedview
     pagecolor="#ffffff"
     bordercolor="#666666"
     borderopacity="1"
     objecttolerance="10"
     gridtolerance="10"
     guidetolerance="10"
     inkscape:pageopacity="0"
     inkscape:pageshadow="2"
     inkscape:window-width="1920"
     inkscape:window-height="1058"
     id="namedview38"
     showgrid="false"
     fit-margin-top="0"
     fit-margin-left="0"
     fit-margin-right="0"
     fit-margin-bottom="0"
     inkscape:zoom="0.23372157"
     inkscape:cx="-697.54786"
     inkscape:cy="345.79067"
     inkscape:window-x="-8"
     inkscape:window-y="-8"
     inkscape:window-maximized="1"
     inkscape:current-layer="Capa_1" fill="white" /><g
     id="g3"
     transform="scale(1.4005602,1.4005602)"><g
       id="fullscreen"><path
         d="m 51,229.5 -51,0 0,127.5 127.5,0 0,-51 -76.5,0 0,-76.5 z m -51,-102 51,0 0,-76.5 76.5,0 0,-51 L 0,0 0,127.5 Z m 306,178.5 -76.5,0 0,51 127.5,0 0,-127.5 -51,0 0,76.5 z M 229.5,0 l 0,51 76.5,0 0,76.5 51,0 L 357,0 229.5,0 Z"
         id="path6"
         inkscape:connector-curvature="0" fill="white"/></g></g><g
     id="g8"
     transform="translate(71.5,71.5)" /><g
     id="g10"
     transform="translate(71.5,71.5)" /><g
     id="g12"
     transform="translate(71.5,71.5)" /><g
     id="g14"
     transform="translate(71.5,71.5)" /><g
     id="g16"
     transform="translate(71.5,71.5)" /><g
     id="g18"
     transform="translate(71.5,71.5)" /><g
     id="g20"
     transform="translate(71.5,71.5)" /><g
     id="g22"
     transform="translate(71.5,71.5)" /><g
     id="g24"
     transform="translate(71.5,71.5)" /><g
     id="g26"
     transform="translate(71.5,71.5)" /><g
     id="g28"
     transform="translate(71.5,71.5)" /><g
     id="g30"
     transform="translate(71.5,71.5)" /><g
     id="g32"
     transform="translate(71.5,71.5)" /><g
     id="g34"
     transform="translate(71.5,71.5)" /><g
     id="g36"
     transform="translate(71.5,71.5)" /></svg>