<?xml version="1.0" encoding="iso-8859-1"?>
<!-- Generator: Adobe Illustrator 19.0.1, SVG Export Plug-In . SVG Version: 6.00 Build 0)  -->
<svg version="1.1" id="Layer_1" xmlns="http://www.w3.org/2000/svg" xmlns:xlink="http://www.w3.org/1999/xlink" x="0px" y="0px"
	 viewBox="0 0 500 500" style="enable-background:new 0 0 500 500;" xml:space="preserve">
<path style="fill:#CFD8DC;" d="M382.154,203.564l19.842-48.806c2.227-5.476-0.56-8.481-6.185-6.688l-19.738,6.291
	c-21.887-45.797-60.155-80.497-107.942-97.789c-48.257-17.467-100.424-15.092-146.895,6.685
	C74.768,85.024,39.555,123.592,22.093,171.85C9.69,206.12,7.296,242.361,14.744,277.139c3.042,14.188,7.722,28.139,14.034,41.6
	c21.776,46.476,60.337,81.683,108.59,99.145c48.256,17.467,100.428,15.092,146.899-6.681c6.588-3.09,13.169-6.198,19.071-10.293
	c7.837-5.446,16.077-10.274,7.985-22.124c-8.196-11.99-24.422-2.979-40.173,4.436c-38.958,18.349-82.769,20.264-123.266,5.609
	c-40.491-14.654-72.855-44.2-91.129-83.202c-5.297-11.305-9.223-23.002-11.773-34.915c-6.253-29.179-4.241-59.599,6.166-88.352
	c14.654-40.495,44.204-72.861,83.196-91.131c38.996-18.271,82.778-20.257,123.274-5.61c38.746,14.032,70.016,41.711,88.652,78.241
	l-20.468,6.529c-5.632,1.793-6.158,5.858-1.178,9.041l44.426,28.315C374.035,210.915,379.931,209.032,382.154,203.564"/>
<path style="fill:#CFD8DC;" d="M192.701,125.371v111.081l-75.365,61.455c-5.353,4.361-6.153,12.242-1.786,17.597
	c2.47,3.03,6.071,4.602,9.702,4.602c2.777,0,5.577-0.923,7.894-2.816l84.573-68.955V125.371c0-6.907-5.6-12.509-12.509-12.509
	C198.302,112.862,192.701,118.464,192.701,125.371"/>
<g>
	<g>
		<polygon style="fill:#37474F;" points="365.18,256.16 249.342,452.236 481.1,452.236 		"/>
		<path style="fill:#CFD8DC;" d="M490.526,457.612H239.919L365.18,245.59L490.526,457.612z M258.765,446.859h212.909L365.18,266.731
			L258.765,446.859z"/>
	</g>
	<rect x="356.302" y="398.798" style="fill:#CFD8DC;" width="17.838" height="17.86"/>
	<rect x="356.302" y="327.546" style="fill:#CFD8DC;" width="17.838" height="53.415"/>
	<path d="M356.302,380.961"/>
</g>
</svg>
