<?xml version="1.0" encoding="UTF-8" standalone="no"?>
<!-- Generator: Adobe Illustrator 16.0.0, SVG Export Plug-In . SVG Version: 6.00 Build 0)  -->

<svg
   xmlns:dc="http://purl.org/dc/elements/1.1/"
   xmlns:cc="http://creativecommons.org/ns#"
   xmlns:rdf="http://www.w3.org/1999/02/22-rdf-syntax-ns#"
   xmlns:svg="http://www.w3.org/2000/svg"
   xmlns="http://www.w3.org/2000/svg"
   xmlns:sodipodi="http://sodipodi.sourceforge.net/DTD/sodipodi-0.dtd"
   xmlns:inkscape="http://www.inkscape.org/namespaces/inkscape"
   version="1.1"
   id="Capa_1"
   x="0px"
   y="0px"
   width="500"
   height="500"
   viewBox="0 0 500 499.99999"
   xml:space="preserve"
   inkscape:version="0.91 r13725"
   sodipodi:docname="angle-arrow-pointing-to-right.svg"><metadata
     id="metadata41"><rdf:RDF><cc:Work
         rdf:about=""><dc:format>image/svg+xml</dc:format><dc:type
           rdf:resource="http://purl.org/dc/dcmitype/StillImage" /><dc:title></dc:title></cc:Work></rdf:RDF></metadata><defs
     id="defs39" /><sodipodi:namedview
     pagecolor="#ffffff"
     bordercolor="#666666"
     borderopacity="1"
     objecttolerance="10"
     gridtolerance="10"
     guidetolerance="10"
     inkscape:pageopacity="0"
     inkscape:pageshadow="2"
     inkscape:window-width="1920"
     inkscape:window-height="1058"
     id="namedview37"
     showgrid="false"
     fit-margin-top="0"
     fit-margin-left="0"
     fit-margin-right="0"
     fit-margin-bottom="0"
     inkscape:zoom="0.82825616"
     inkscape:cx="-71.53908"
     inkscape:cy="249.99959"
     inkscape:window-x="-8"
     inkscape:window-y="-8"
     inkscape:window-maximized="1"
     inkscape:current-layer="Capa_1"/><g
     id="g3"
     transform="matrix(1.75478,0,0,1.75478,-8.7443e-4,4.0785741e-4)"><path
       d="M 222.701,135.9 89.652,2.857 C 87.748,0.955 85.557,0 83.084,0 80.61,0 78.42,0.955 76.517,2.857 L 62.244,17.133 c -1.906,1.903 -2.855,4.089 -2.855,6.567 0,2.478 0.949,4.664 2.855,6.567 L 174.448,142.471 62.244,254.677 c -1.906,1.903 -2.855,4.093 -2.855,6.564 0,2.477 0.949,4.667 2.855,6.57 l 14.274,14.271 c 1.903,1.905 4.093,2.854 6.567,2.854 2.473,0 4.663,-0.951 6.567,-2.854 L 222.694,149.038 c 1.902,-1.902 2.854,-4.093 2.854,-6.567 0,-2.474 -0.945,-4.664 -2.847,-6.571 z"
       id="path5"
       inkscape:connector-curvature="0" fill="white" /></g><g
     id="g7"
     transform="translate(3.3174928,107.5324)" /><g
     id="g9"
     transform="translate(3.3174928,107.5324)" /><g
     id="g11"
     transform="translate(3.3174928,107.5324)" /><g
     id="g13"
     transform="translate(3.3174928,107.5324)" /><g
     id="g15"
     transform="translate(3.3174928,107.5324)" /><g
     id="g17"
     transform="translate(3.3174928,107.5324)" /><g
     id="g19"
     transform="translate(3.3174928,107.5324)" /><g
     id="g21"
     transform="translate(3.3174928,107.5324)" /><g
     id="g23"
     transform="translate(3.3174928,107.5324)" /><g
     id="g25"
     transform="translate(3.3174928,107.5324)" /><g
     id="g27"
     transform="translate(3.3174928,107.5324)" /><g
     id="g29"
     transform="translate(3.3174928,107.5324)" /><g
     id="g31"
     transform="translate(3.3174928,107.5324)" /><g
     id="g33"
     transform="translate(3.3174928,107.5324)" /><g
     id="g35"
     transform="translate(3.3174928,107.5324)"/></svg>