<?xml version="1.0" encoding="UTF-8" standalone="no"?>
<!-- Generator: Adobe Illustrator 16.0.0, SVG Export Plug-In . SVG Version: 6.00 Build 0)  -->

<svg
   xmlns:dc="http://purl.org/dc/elements/1.1/"
   xmlns:cc="http://creativecommons.org/ns#"
   xmlns:rdf="http://www.w3.org/1999/02/22-rdf-syntax-ns#"
   xmlns:svg="http://www.w3.org/2000/svg"
   xmlns="http://www.w3.org/2000/svg"
   xmlns:sodipodi="http://sodipodi.sourceforge.net/DTD/sodipodi-0.dtd"
   xmlns:inkscape="http://www.inkscape.org/namespaces/inkscape"
   version="1.1"
   id="Capa_1"
   x="0px"
   y="0px"
   width="500"
   height="500"
   viewBox="0 0 500 499.99999"
   xml:space="preserve"
   inkscape:version="0.91 r13725"
   sodipodi:docname="angle-pointing-to-left.svg"><metadata
     id="metadata41"><rdf:RDF><cc:Work
         rdf:about=""><dc:format>image/svg+xml</dc:format><dc:type
           rdf:resource="http://purl.org/dc/dcmitype/StillImage" /><dc:title></dc:title></cc:Work></rdf:RDF></metadata><defs
     id="defs39" /><sodipodi:namedview
     pagecolor="#ffffff"
     bordercolor="#666666"
     borderopacity="1"
     objecttolerance="10"
     gridtolerance="10"
     guidetolerance="10"
     inkscape:pageopacity="0"
     inkscape:pageshadow="2"
     inkscape:window-width="1920"
     inkscape:window-height="1058"
     id="namedview37"
     showgrid="false"
     fit-margin-top="0"
     fit-margin-left="0"
     fit-margin-right="0"
     fit-margin-bottom="0"
     inkscape:zoom="1.1713311"
     inkscape:cx="109.16025"
     inkscape:cy="157.21088"
     inkscape:window-x="-8"
     inkscape:window-y="-8"
     inkscape:window-maximized="1"
     inkscape:current-layer="g3" /><g
     id="g3"
     transform="translate(3.32,107.53323)"><path
       d="M 190.5618,142.46875 387.45983,-54.425766 c 3.33761,-3.339366 5.00817,-7.182357 5.00817,-11.523709 0,-4.341352 -1.66881,-8.184343 -5.00817,-11.516691 l -25.05315,-25.053144 c -3.34112,-3.33761 -7.18235,-5.01344 -11.51318,-5.01344 -4.3431,0 -8.18434,1.67583 -11.52371,5.01344 l -233.47313,233.4626 c -3.33936,3.33937 -5.00466,7.18236 -5.00466,11.52371 0,4.34311 1.6653,8.18434 5.00466,11.52371 l 233.46085,233.4626 c 3.34463,3.34463 7.18938,5.01344 11.53073,5.01344 4.33609,0 8.17732,-1.66881 11.51669,-5.01344 l 25.05314,-25.0356 c 3.33761,-3.33936 5.00291,-7.18411 5.00291,-11.52897 0,-4.33784 -1.66354,-8.17908 -5.00291,-11.51845 L 190.5618,142.46875 Z"
       id="path5"
       inkscape:connector-curvature="0" /></g><g
     id="g7"
     transform="translate(3.32,107.53323)" /><g
     id="g9"
     transform="translate(3.32,107.53323)" /><g
     id="g11"
     transform="translate(3.32,107.53323)" /><g
     id="g13"
     transform="translate(3.32,107.53323)" /><g
     id="g15"
     transform="translate(3.32,107.53323)" /><g
     id="g17"
     transform="translate(3.32,107.53323)" /><g
     id="g19"
     transform="translate(3.32,107.53323)" /><g
     id="g21"
     transform="translate(3.32,107.53323)" /><g
     id="g23"
     transform="translate(3.32,107.53323)" /><g
     id="g25"
     transform="translate(3.32,107.53323)" /><g
     id="g27"
     transform="translate(3.32,107.53323)" /><g
     id="g29"
     transform="translate(3.32,107.53323)" /><g
     id="g31"
     transform="translate(3.32,107.53323)" /><g
     id="g33"
     transform="translate(3.32,107.53323)" /><g
     id="g35"
     transform="translate(3.32,107.53323)" /></svg>