<?xml version="1.0" encoding="UTF-8" standalone="no"?>
<!-- Generator: Adobe Illustrator 17.0.0, SVG Export Plug-In . SVG Version: 6.00 Build 0)  -->

<svg
   xmlns:dc="http://purl.org/dc/elements/1.1/"
   xmlns:cc="http://creativecommons.org/ns#"
   xmlns:rdf="http://www.w3.org/1999/02/22-rdf-syntax-ns#"
   xmlns:svg="http://www.w3.org/2000/svg"
   xmlns="http://www.w3.org/2000/svg"
   xmlns:xlink="http://www.w3.org/1999/xlink"
   xmlns:sodipodi="http://sodipodi.sourceforge.net/DTD/sodipodi-0.dtd"
   xmlns:inkscape="http://www.inkscape.org/namespaces/inkscape"
   version="1.1"
   id="Слой_1"
   x="0px"
   y="0px"
   width="500"
   height="500"
   viewBox="0 0 500 499.99999"
   xml:space="preserve"
   inkscape:version="0.91 r13725"
   sodipodi:docname="eye.svg"><metadata
     id="metadata21"><rdf:RDF><cc:Work
         rdf:about=""><dc:format>image/svg+xml</dc:format><dc:type
           rdf:resource="http://purl.org/dc/dcmitype/StillImage" /><dc:title></dc:title></cc:Work></rdf:RDF></metadata><defs
     id="defs19" /><sodipodi:namedview
     pagecolor="#ffffff"
     bordercolor="#666666"
     borderopacity="1"
     objecttolerance="10"
     gridtolerance="10"
     guidetolerance="10"
     inkscape:pageopacity="0"
     inkscape:pageshadow="2"
     inkscape:window-width="1920"
     inkscape:window-height="1058"
     id="namedview17"
     showgrid="false"
     fit-margin-top="0"
     fit-margin-left="0"
     fit-margin-right="0"
     fit-margin-bottom="0"
     inkscape:zoom="0.23046875"
     inkscape:cx="-530.87638"
     inkscape:cy="164.00001"
     inkscape:window-x="-8"
     inkscape:window-y="-8"
     inkscape:window-maximized="1"
     inkscape:current-layer="Слой_1" /><g
     id="g3"
     transform="matrix(0.67049403,0,0,0.67049403,-93.198739,-93.722395)"><g
       id="g5"><defs
         id="defs7"><rect
           id="SVGID_1_"
           x="139"
           y="269"
           width="745.91998"
           height="488" /></defs><clipPath
         id="SVGID_2_"><use
           xlink:href="#SVGID_1_"
           style="overflow:visible"
           id="use11"
           x="0"
           y="0"
           width="100%"
           height="100%" /></clipPath><path
         d="m 511.859,269 c -164.48,0 -306.238,96.961 -371.359,236.879 -2,4.242 -2,9.199 0,13.519 65.121,139.922 206.879,236.883 371.359,236.883 164.481,0 306.243,-96.961 371.36,-236.883 2,-4.238 2,-9.199 0,-13.519 C 818.102,365.961 676.34,269 511.859,269 l 0,0 z m 0,411.762 c -92.879,0 -168.078,-75.282 -168.078,-168.082 0,-92.879 75.278,-168.078 168.078,-168.078 92.879,0 168.082,75.277 168.082,168.078 0,92.8 -75.281,168.082 -168.082,168.082 l 0,0 z m 0,0"
         id="path13"
         clip-path="url(#SVGID_2_)"
         inkscape:connector-curvature="0" fill="white"/></g><path
       d="m 619.461,512.602 c 0,59.425 -48.176,107.597 -107.602,107.597 -59.425,0 -107.597,-48.172 -107.597,-107.597 0,-59.426 48.172,-107.602 107.597,-107.602 59.426,0 107.602,48.176 107.602,107.602 l 0,0 z m 0,0"
       id="path15"
       inkscape:connector-curvature="0" fill="white"/></g></svg>