<?xml version="1.0" encoding="iso-8859-1"?>
<!-- Generator: Adobe Illustrator 19.0.1, SVG Export Plug-In . SVG Version: 6.00 Build 0)  -->
<svg version="1.1" id="Layer_1" xmlns="http://www.w3.org/2000/svg" xmlns:xlink="http://www.w3.org/1999/xlink" x="0px" y="0px"
	 viewBox="0 0 500 500" style="enable-background:new 0 0 500 500;" xml:space="preserve">
<polygon style="fill:#CFD8DC;" points="287.238,220.715 219.354,259.907 151.473,299.103 151.473,220.715 151.473,142.332 
	219.354,181.52 "/>
<g>
	<rect x="307.289" y="433.099" style="fill:#CFD8DC;" width="16.626" height="16.295"/>
	<rect x="307.289" y="368.09" style="fill:#CFD8DC;" width="16.626" height="48.729"/>
	<path style="fill:#CFD8DC;" d="M423.593,481.842l-49.882-82.884V124.192L274.038,10.333H91.404
		c-18.338,0-33.261,14.621-33.261,32.56v373.925c0,17.864,14.922,32.575,33.261,32.575h136.163l-19.949,32.448H423.593z
		 M393.662,465.565H235.849l79.717-130.043L393.662,465.565z M274.038,34.71l78.101,89.482h-61.475
		c-8.276,0-16.626-8.19-16.626-16.276V34.71z M91.404,433.099c-8.361,0-16.635-6.517-16.635-16.28V42.893
		c0-8.183,6.652-16.276,16.635-16.276h166.09v81.299c0,17.861,14.918,32.46,33.17,32.46h66.421V371.33l-41.52-68.355
		l-78.013,130.124H91.404z M91.404,433.099"/>
</g>
<g>
	<g>
		<polygon style="fill:#37474F;" points="316.145,288.111 199.869,484.936 432.512,484.936 		"/>
		<path style="fill:#CFD8DC;" d="M441.974,490.333H190.41L316.145,277.5L441.974,490.333z M209.327,479.539H423.05L316.145,298.723
			L209.327,479.539z"/>
	</g>
	<rect x="307.233" y="431.295" style="fill:#CFD8DC;" width="17.913" height="17.931"/>
	<rect x="307.233" y="359.77" style="fill:#CFD8DC;" width="17.913" height="53.619"/>
	<path d="M307.233,413.389"/>
</g>
</svg>
